<svg version="1.1" id="Layer_1" xmlns="http://www.w3.org/2000/svg" xmlns:xlink="http://www.w3.org/1999/xlink" x="0px" y="0px"
	 viewBox="0 0 512 512" style="enable-background:new 0 0 512 512;" xml:space="preserve">
<style type="text/css">
	.st0{fill:#E10125;}
	.st1{fill:#FEEB10;}
</style>
<path class="st0" d="M245,393c-19.5-0.8-38.8-2.3-58-6c-20.2-3.9-39.6-9.9-57.3-20.6c-14.3-8.7-24-20.8-27.4-37.4
	c-0.2-1-0.8-1.9-1.3-2.9c0-6.7,0.4-11.1,0.4-17.8c0.8-1.1,0.6-3.3,0.7-4.1c3.5-23.8,11.2-46.4,18.9-69
	c12.4-36.1,23.3-72.6,37.1-108.2c1.1-2.9,2.3-5.8,4.8-7.9c0.3,0,0.7,0,1,0c6.2,3.4,12.5,6.6,18.7,10.1c38.4,22,78.9,38.9,121.8,50.1
	c20.4,5.3,40.8,10.6,60,19.7c31.4,14.9,47.5,39.4,47.6,74.3c0.1,24.9-1.6,49.6-4.3,74.3c-1.6,14.7-7.7,26.8-22.2,33.1
	c-7.5,3.3-15.5,4.9-23.5,6.4c-25.8,4.8-52,4.6-78.1,6 M132.6,274.3c0.2,4.6,0.2,7.7,1,10.9c3.2,13.6,13.2,20.2,25.2,24.7
	c13,4.8,26.6,5.2,40.2,6.7c14.2,1.6,22.8-4.6,29.3-16c4.7-8.3,8.3-17,11.4-25.9c1.8-5,2.5-10.3,2-15.7c-3-27.8-19-45.3-44.1-55.5
	c-11.1-4.5-21.9-3.2-31,4.6C146,225.8,134.7,248.5,132.6,274.3z M299.7,327c11.5,0,23,0.5,34.4-0.1c14.9-0.9,30-1.6,44.6-5.1
	c11.2-2.7,14.8-9.9,10.6-20.7c-5.3-13.5-14.3-23.8-26.8-31.3c-27.7-16.5-58.2-25.2-89.4-31.8c-5.1-1.1-5.7-0.4-5.4,5.1
	c0.7,12.2,0.1,24.3-2.8,36.2c-2.8,11.5-7.9,22.2-11.8,33.3c-2.5,7.1-0.8,10.5,6.3,13.1c1.9,0.7,3.8,1,5.8,1.3
	C276.8,328.8,288.2,328.3,299.7,327z"/>
<path class="st1" d="M132.6,274.3c2.1-25.8,13.4-48.5,34.1-66.2c9.1-7.8,19.9-9.1,31-4.6c25.1,10.2,41,27.8,44.1,55.5
	c0.6,5.4-0.2,10.7-2,15.7c-3.1,8.9-6.7,17.7-11.4,25.9c-6.5,11.4-15.1,17.6-29.3,16c-13.6-1.5-27.2-1.9-40.2-6.7
	c-12-4.5-22-11.1-25.2-24.7C132.8,282.1,132.9,278.9,132.6,274.3z"/>
<path class="st1" d="M299.7,327c-11.5,1.3-23,1.8-34.4,0c-2-0.3-4-0.6-5.8-1.3c-7.1-2.6-8.8-6-6.3-13.1c3.9-11.1,8.9-21.8,11.8-33.3
	c3-11.9,3.5-24,2.8-36.2c-0.3-5.5,0.3-6.2,5.4-5.1c31.2,6.6,61.7,15.3,89.4,31.8c12.5,7.4,21.5,17.8,26.8,31.3
	c4.2,10.8,0.6,17.9-10.6,20.7c-14.6,3.5-29.7,4.2-44.6,5.1C322.7,327.5,311.2,327,299.7,327z"/>
</svg>
